<svg xmlns="http://www.w3.org/2000/svg" viewBox="0 0 198.64 37"><title>Komponent</title><g style="fill:#0038ea;"><path d="M48.58,9.89h3.88v8.33l7.35-8.33h4.74l-7.09,7.88,7.59,10.28H60.32l-5.58-7.51L52.46,23v5.07H48.58Z"/><path d="M66.05,21.21a7.47,7.47,0,0,1,14.92,0,7.47,7.47,0,0,1-14.92,0Zm11.24,0a3.77,3.77,0,1,0-3.75,3.91A3.86,3.86,0,0,0,77.29,21.21Z"/><path d="M104.9,19.35v8.73h-3.7V20a2.54,2.54,0,1,0-5.08-.22v8.28h-3.7V20a2.53,2.53,0,1,0-5-.22v8.25H83.51V14.38h3.86v1.8a4,4,0,0,1,3.7-2.11,4.87,4.87,0,0,1,4.34,2.48,4.74,4.74,0,0,1,4.44-2.48A5,5,0,0,1,104.9,19.35Z"/><path d="M122.88,21.21c0,4.2-2.64,7.16-6.29,7.16A5.58,5.58,0,0,1,112,26.12V32.6h-3.86V14.38H112v1.91a5.64,5.64,0,0,1,4.58-2.22C120.24,14.07,122.88,17,122.88,21.21Zm-3.75,0a3.62,3.62,0,0,0-3.65-3.89A3.49,3.49,0,0,0,112,20.68v1.05a3.5,3.5,0,0,0,3.47,3.39A3.63,3.63,0,0,0,119.13,21.21Z"/><path d="M124.84,21.21a7.46,7.46,0,0,1,14.91,0,7.46,7.46,0,0,1-14.91,0Zm11.24,0a3.77,3.77,0,1,0-3.76,3.91A3.87,3.87,0,0,0,136.08,21.21Z"/><path d="M155.35,19.35v8.7h-3.73V20.17A2.6,2.6,0,0,0,149,17.32,2.71,2.71,0,0,0,146.18,20l0-.08v8.17h-3.86V14.38h3.86V16.1a4.87,4.87,0,0,1,4.13-2A5,5,0,0,1,155.35,19.35Z"/><path d="M168.2,23.74l2.46,2.52a8.33,8.33,0,0,1-5.58,2.11,7,7,0,0,1-7.24-7.19,6.88,6.88,0,0,1,7-7.11c4.29,0,6.8,3.25,6.8,8.41H161.8A3.32,3.32,0,0,0,165.06,25,4.91,4.91,0,0,0,168.2,23.74Zm-6.34-4H168A2.86,2.86,0,0,0,165,17.48,3.29,3.29,0,0,0,161.86,19.7Z"/><path d="M187.27,19.35v8.7h-3.73V20.17A2.6,2.6,0,0,0,181,17.32,2.72,2.72,0,0,0,178.09,20l0-.08v8.17h-3.86V14.38h3.86V16.1a4.87,4.87,0,0,1,4.12-2A5,5,0,0,1,187.27,19.35Z"/><path d="M198.64,27.18a5,5,0,0,1-3.15,1.19,4,4,0,0,1-4.09-4.18V17.5h-1.88V14.38h1.88V10.63h3.7v3.75h3V17.5h-3v6.09a1.4,1.4,0,0,0,1.29,1.53,2,2,0,0,0,1.32-.45Z"/><rect y="12" width="20" height="12"/></g><g style="fill:#aaa;"><rect width="10" height="12"/><rect y="24" width="10" height="13"/><rect x="20" width="10" height="12"/><rect x="20" y="24" width="10" height="13"/></g></svg>
